CATALOG 0000000000000
FILE "Psycho Killer (1992)(On-line)(Track 1 of 3)[!][U2A2030UB].iso" BINARY
  TRACK 01 MODE1/2048
    INDEX 01 00:00:00
FILE "Psycho Killer (1992)(On-line)(Track 2 of 3)[!][U2A2030UB].wav" WAVE
  TRACK 02 AUDIO
    PREGAP 00:02:00
    INDEX 01 00:00:00
FILE "Psycho Killer (1992)(On-line)(Track 3 of 3)[!][U2A2030UB].wav" WAVE
  TRACK 03 AUDIO
    INDEX 01 00:00:00
